<svg xmlns="http://www.w3.org/2000/svg" viewBox="0 0 64 64" id="california-maki"><g data-name="18-California Maki"><rect width="20.29" height="20.29" x="21.85" y="21.85" fill="#88a80d" rx="7.03"></rect><path fill="#79930c" d="M35.12,33.41H28.88A7,7,0,0,1,22,27.63a7.36,7.36,0,0,0-.13,1.25v6.24a7,7,0,0,0,7,7h6.24a7,7,0,0,0,7-7V28.88A7.36,7.36,0,0,0,42,27.63,7,7,0,0,1,35.12,33.41Z"></path><path fill="#fffbf7" d="M54.32,24.52v15A14.85,14.85,0,0,1,39.48,54.32h-15A14.85,14.85,0,0,1,9.68,39.48v-15A14.85,14.85,0,0,1,24.52,9.68h15A14.85,14.85,0,0,1,54.32,24.52ZM42.15,35.12V28.88a7,7,0,0,0-7-7H28.88a7,7,0,0,0-7,7v6.24a7,7,0,0,0,7,7h6.24A7,7,0,0,0,42.15,35.12Z"></path><path fill="#fb812e" d="M62.6,23.6V40.4A22.21,22.21,0,0,1,40.4,62.59H23.6A22.21,22.21,0,0,1,1.41,40.4V23.6A22.21,22.21,0,0,1,23.6,1.41H40.4A22.21,22.21,0,0,1,62.6,23.6ZM54.32,39.48v-15A14.85,14.85,0,0,0,39.48,9.68h-15A14.85,14.85,0,0,0,9.68,24.52v15A14.85,14.85,0,0,0,24.52,54.32h15A14.85,14.85,0,0,0,54.32,39.48Z"></path><path d="M40.41,64H23.6A23.62,23.62,0,0,1,0,40.4V23.6A23.62,23.62,0,0,1,23.6,0H40.41A23.62,23.62,0,0,1,64,23.6V40.4A23.62,23.62,0,0,1,40.41,64ZM23.6,2.81A20.82,20.82,0,0,0,2.81,23.6V40.4A20.82,20.82,0,0,0,23.6,61.19H40.41A20.82,20.82,0,0,0,61.19,40.4V23.6A20.82,20.82,0,0,0,40.41,2.81Z"></path><path d="M39.48,55.72h-15A16.26,16.26,0,0,1,8.28,39.48v-15A16.26,16.26,0,0,1,24.52,8.28h15A16.26,16.26,0,0,1,55.72,24.52v15A16.26,16.26,0,0,1,39.48,55.72Zm-15-44.63A13.45,13.45,0,0,0,11.09,24.52v15A13.45,13.45,0,0,0,24.52,52.91h15A13.44,13.44,0,0,0,52.91,39.48v-15A13.44,13.44,0,0,0,39.48,11.09Z"></path><path d="M35.12,43.55H28.88a8.44,8.44,0,0,1-8.43-8.43V28.88a8.44,8.44,0,0,1,8.43-8.43h6.24a8.44,8.44,0,0,1,8.43,8.43v6.24A8.44,8.44,0,0,1,35.12,43.55ZM28.88,23.26a5.62,5.62,0,0,0-5.62,5.62v6.24a5.62,5.62,0,0,0,5.62,5.62h6.24a5.62,5.62,0,0,0,5.62-5.62V28.88a5.62,5.62,0,0,0-5.62-5.62Z"></path></g></svg>